<svg width="21" height="24" viewBox="0 0 21 24" fill="none" xmlns="http://www.w3.org/2000/svg">
<path d="M19.792 18.7038C19.429 19.5423 18.9994 20.3141 18.5016 21.0237C17.8231 21.9911 17.2676 22.6607 16.8395 23.0325C16.1758 23.6429 15.4647 23.9555 14.7032 23.9733C14.1566 23.9733 13.4973 23.8177 12.73 23.5022C11.9601 23.1881 11.2525 23.0325 10.6056 23.0325C9.92709 23.0325 9.19941 23.1881 8.42106 23.5022C7.64153 23.8177 7.01355 23.9821 6.53342 23.9984C5.80322 24.0295 5.07539 23.7081 4.3489 23.0325C3.88521 22.6281 3.30523 21.9348 2.61043 20.9526C1.86498 19.9037 1.25211 18.6875 0.771975 17.3009C0.257769 15.8031 0 14.3528 0 12.9487C0 11.3403 0.347544 9.95308 1.04367 8.7906C1.59076 7.85685 2.31859 7.12028 3.22953 6.57955C4.14046 6.03883 5.12472 5.76328 6.18469 5.74565C6.76467 5.74565 7.52524 5.92505 8.47039 6.27764C9.41288 6.6314 10.018 6.8108 10.2834 6.8108C10.4817 6.8108 11.154 6.60103 12.2937 6.18282C13.3714 5.79498 14.281 5.6344 15.0262 5.69765C17.0454 5.86061 18.5624 6.65659 19.5712 8.09062C17.7654 9.18481 16.872 10.7174 16.8898 12.6834C16.9061 14.2147 17.4617 15.4891 18.5535 16.5009C19.0483 16.9705 19.6009 17.3335 20.2156 17.5912C20.0823 17.9779 19.9416 18.3482 19.792 18.7038ZM15.161 0.480625C15.161 1.6809 14.7225 2.80159 13.8484 3.83889C12.7937 5.07204 11.5179 5.78461 10.1343 5.67217C10.1167 5.52818 10.1065 5.37663 10.1065 5.21737C10.1065 4.06511 10.6081 2.83196 11.4989 1.8237C11.9436 1.31319 12.5092 0.888716 13.1951 0.550104C13.8796 0.216543 14.5269 0.0320773 15.1358 0.000488281C15.1536 0.160946 15.161 0.321414 15.161 0.48061V0.480625Z" fill="black"/>
</svg>
