<svg width="195" height="69" viewBox="0 0 195 69" fill="none" xmlns="http://www.w3.org/2000/svg">
<path d="M1.09383 38.316C1.33357 43.0305 1.9954 47.2685 2.64116 50.1026C2.96531 52.264 3.50364 54.1932 4.21574 55.9125C12.7718 76.5707 43.5218 65.6357 65.7658 63.3608C95.5119 58.2878 140.612 63.3608 159.443 66.5314C175.313 70.0179 184.037 64.5408 188.384 55.9256C196.699 39.4497 195.79 14.5921 180.132 4.82313C179.761 4.5917 179.386 4.37223 179.007 4.16433C167.233 -2.29334 153.078 4.38363 139.782 6.26286C135.222 6.90735 130.838 7.41797 127.737 7.73153C102.464 9.96653 74.6598 8.81541 55.9356 7.28859C45.5788 6.44407 29.3995 1.52071 19.2915 3.93025C3.67823 7.65217 0.278647 22.2859 1.09383 38.316Z" stroke="#365677"/>
<path d="M8.86197 41.0103C9.15839 43.6015 9.59602 45.8784 10.026 47.5603C12.6052 62.8869 29.7307 64.1633 37.971 62.8857C43.7749 61.1615 60.9895 59.2936 68.8713 58.5752C96.6009 54.3605 138.643 58.5752 156.198 61.2094C168.508 63.6196 176.206 60.8738 180.779 55.7602C192.885 42.2227 187.115 12.001 169.492 7.6109C158.963 4.9878 151.017 9.38018 140.262 10.8267C135.187 11.5093 130.072 12.049 126.641 12.3582C102.285 14.2779 75.4054 13.1908 57.965 11.8605C49.4687 11.2124 35.5203 7.63563 27.0965 8.91847C11.6801 11.2662 7.08963 25.5173 8.86197 41.0103Z" stroke="#365677" stroke-linecap="round" stroke-dasharray="5 5"/>
</svg>
