<svg width="194" height="68" viewBox="0 0 194 68" fill="none" xmlns="http://www.w3.org/2000/svg">
<path d="M1.09383 37.316C1.33357 42.0305 1.9954 46.2685 2.64116 49.1026C2.96531 51.264 3.50364 53.1932 4.21574 54.9125C12.7718 75.5707 43.5218 64.6357 65.7658 62.3608C95.5119 57.2878 140.612 62.3608 159.443 65.5314C175.313 69.0179 184.037 63.5408 188.384 54.9256C196.699 38.4497 195.79 13.5921 180.132 3.82313C179.761 3.5917 179.386 3.37223 179.007 3.16433C167.233 -3.29334 153.078 3.38363 139.782 5.26286C135.222 5.90735 130.838 6.41797 127.737 6.73153C102.464 8.96653 74.6598 7.81541 55.9356 6.28859C45.5788 5.44407 29.3995 0.520706 19.2915 2.93025C3.67823 6.65217 0.278647 21.2859 1.09383 37.316Z" fill="#E6E1DD"/>
<path d="M8.86197 40.0103C9.15839 42.6015 9.59602 44.8784 10.026 46.5603C12.6052 61.8869 29.7307 63.1633 37.971 61.8857C43.7749 60.1615 60.9895 58.2936 68.8713 57.5752C96.6009 53.3605 138.643 57.5752 156.198 60.2094C168.508 62.6196 176.206 59.8738 180.779 54.7602C192.885 41.2227 187.115 11.001 169.492 6.6109C158.963 3.9878 151.017 8.38018 140.262 9.82668C135.187 10.5093 130.072 11.049 126.641 11.3582C102.285 13.2779 75.4054 12.1908 57.965 10.8605C49.4687 10.2124 35.5203 6.63563 27.0965 7.91847C11.6801 10.2662 7.08963 24.5173 8.86197 40.0103Z" stroke="white" stroke-linecap="round" stroke-dasharray="5 5"/>
</svg>
