<svg width="74" height="68" viewBox="0 0 74 68" fill="none" xmlns="http://www.w3.org/2000/svg">
<path d="M19.7719 65.623C12.3719 65.623 5.95469 60.3621 4.50938 53.0777C1.96562 40.359 1.96562 27.2934 4.50938 14.5746C5.95469 7.23242 12.3141 2.0293 19.7719 2.0293C21.6797 2.0293 23.125 3.70586 22.8938 5.61367L21.5063 15.9621C21.1016 18.7949 18.6734 20.934 15.8406 20.934C12.95 20.934 10.8109 20.1824 10.8109 20.1824V48.6262C10.8109 48.6262 13.0656 46.7184 15.8406 46.7184C18.7313 46.7184 21.1594 48.8574 21.5063 51.6902L22.2578 57.1246L21.9688 65.623H19.7719Z" fill="white"/>
<path d="M21.3906 65.6234L46.5391 65.7969C60.4141 65.7969 71.6875 54.5234 71.6875 40.6484C71.6875 26.7734 60.4141 15.5 46.5391 15.5C32.6641 15.5 21.3906 26.7734 21.3906 40.6484V65.6234Z" fill="white"/>
<path d="M19.7721 67.3574C11.5627 67.3574 4.39395 61.5184 2.83301 53.4246C0.231445 40.4168 0.231445 27.2355 2.83301 14.2277C4.45176 6.13398 11.5627 0.294922 19.7721 0.294922C21.1596 0.294922 22.5471 0.93086 23.4721 1.97148C24.3971 3.01211 24.8018 4.45742 24.6283 5.84492L23.2408 16.1934C22.7205 19.8934 19.5408 22.6684 15.8408 22.6684C14.5689 22.6684 13.4127 22.5527 12.5455 22.3793V45.6777C13.4705 45.3309 14.6268 45.0418 15.8408 45.0418C19.5408 45.0418 22.7205 47.8168 23.2408 51.5168L23.9924 56.9512C24.108 57.8762 23.4721 58.8012 22.4893 58.9168C21.5643 59.0324 20.6393 58.3965 20.5236 57.4137L19.7721 51.9215C19.483 49.9559 17.8064 48.4527 15.783 48.4527C13.7018 48.4527 11.8518 49.898 11.8518 49.9559C11.3314 50.3605 10.6377 50.4762 10.0018 50.1871C9.42363 49.898 9.01895 49.3199 9.01895 48.6262V20.1824C9.01895 19.6043 9.30801 19.084 9.7127 18.7949C10.1752 18.448 10.7533 18.3902 11.2736 18.5637C11.2736 18.5637 13.2393 19.1996 15.783 19.1996C17.8064 19.1996 19.483 17.6965 19.7721 15.7309L21.1596 5.38242C21.2174 4.8043 20.9861 4.45742 20.8127 4.28398C20.6393 4.11055 20.2924 3.82148 19.7721 3.82148C13.1814 3.82148 7.51582 8.5043 6.24395 14.9793C3.75801 27.5246 3.75801 40.3012 6.24395 52.8465C7.51582 59.3215 13.2393 64.0043 19.7721 64.0043C20.7549 64.0043 21.5064 64.7559 21.5064 65.7387C21.5064 66.7215 20.6971 67.3574 19.7721 67.3574Z" fill="#00114A"/>
<path d="M46.5391 67.5312H27.6922C26.7094 67.5312 25.9578 66.7797 25.9578 65.7969C25.9578 64.8141 26.7094 64.0625 27.6922 64.0625H46.5391C59.4312 64.0625 69.9531 53.5406 69.9531 40.6484C69.9531 27.7563 59.4312 17.2344 46.5391 17.2344C33.6469 17.2344 23.125 27.7563 23.125 40.6484C23.125 41.6313 22.3734 42.3828 21.3906 42.3828C20.4078 42.3828 19.6562 41.6313 19.6562 40.6484C19.6562 25.8484 31.7391 13.7656 46.5391 13.7656C61.3391 13.7656 73.4219 25.8484 73.4219 40.6484C73.4219 55.4484 61.3391 67.5312 46.5391 67.5312Z" fill="#00114A"/>
<path d="M53.708 50.9961H35.7861C34.8033 50.9961 34.0518 50.2445 34.0518 49.2617C34.0518 48.2789 34.8033 47.5273 35.7861 47.5273H53.7658C54.7486 47.5273 55.5002 48.2789 55.5002 49.2617C55.5002 50.2445 54.6908 50.9961 53.708 50.9961Z" fill="#00114A"/>
<path d="M53.708 40.2441H35.7861C34.8033 40.2441 34.0518 39.4926 34.0518 38.5098C34.0518 37.527 34.8033 36.7754 35.7861 36.7754H53.7658C54.7486 36.7754 55.5002 37.527 55.5002 38.5098C55.5002 39.4926 54.6908 40.2441 53.708 40.2441Z" fill="#00114A"/>
</svg>
