<svg width="47" height="57" viewBox="0 0 47 57" fill="none" xmlns="http://www.w3.org/2000/svg">
<path d="M39.1068 8.60994L39.1109 8.61405C47.6273 17.0644 47.6332 30.9416 39.1068 39.4681L39.1018 39.4731L24.201 54.5152L24.1556 54.561L24.1143 54.6105C24.1124 54.6128 24.0917 54.6364 24.031 54.6615C23.9689 54.6872 23.8827 54.7064 23.7836 54.7064C23.6425 54.7064 23.5226 54.6715 23.3613 54.5101L23.3588 54.5077L8.2486 39.4681C8.24832 39.4678 8.24804 39.4675 8.24776 39.4673C-0.275577 30.943 -0.275295 17.1338 8.2486 8.60993C16.7728 0.0857512 30.5826 0.0857512 39.1068 8.60994Z" fill="white" stroke="#00114A" stroke-width="3"/>
<path d="M23.7114 30.7158C27.6116 30.7158 30.7734 27.554 30.7734 23.6538C30.7734 19.7536 27.6116 16.5918 23.7114 16.5918C19.8112 16.5918 16.6494 19.7536 16.6494 23.6538C16.6494 27.554 19.8112 30.7158 23.7114 30.7158Z" fill="#00114A"/>
</svg>
