<svg width="74" height="58" viewBox="0 0 74 58" fill="none" xmlns="http://www.w3.org/2000/svg">
<path d="M8.09375 8.975V2.5H65.9062V52.2188H8.09375V8.975Z" fill="white"/>
<path d="M65.9062 53.9531H8.09375C7.11094 53.9531 6.35938 53.2016 6.35938 52.2188V2.5C6.35938 1.51719 7.11094 0.765625 8.09375 0.765625H65.9062C66.8891 0.765625 67.6406 1.51719 67.6406 2.5V52.2188C67.6406 53.2016 66.8891 53.9531 65.9062 53.9531ZM9.82812 50.4844H64.1719V4.23438H9.82812V50.4844Z" fill="#00114A"/>
<path d="M69.9531 57.4219H4.04688C2.13906 57.4219 0.578125 55.8609 0.578125 53.9531C0.578125 52.0453 2.13906 50.4844 4.04688 50.4844H69.9531C71.8609 50.4844 73.4219 52.0453 73.4219 53.9531C73.4219 55.8609 71.8609 57.4219 69.9531 57.4219Z" fill="#00114A"/>
<path d="M32.2016 29.0938H21.3906C17.8641 29.0938 15.0312 26.2609 15.0312 22.7344C15.0312 19.2078 17.8641 16.375 21.3906 16.375H54.3438C55.3266 16.375 56.0781 17.1266 56.0781 18.1094C56.0781 19.0922 55.3266 19.8438 54.3438 19.8438H21.3906C19.7719 19.8438 18.5 21.1156 18.5 22.7344C18.5 24.3531 19.7719 25.625 21.3906 25.625H32.2016C33.1844 25.625 33.9359 26.3766 33.9359 27.3594C33.9359 28.3422 33.1844 29.0938 32.2016 29.0938Z" fill="#00114A"/>
<path d="M44.8619 39.1535L41.2197 26.377L53.9963 30.0769L46.5963 31.7535L44.8619 39.1535Z" fill="#00114A"/>
<path d="M55.5576 38.2855L50.0076 32.7355L54.4013 31.7527C55.1529 31.5793 55.731 30.8855 55.731 30.1339C55.731 29.3246 55.2107 28.6308 54.4591 28.3996L41.6826 24.7574C41.1044 24.5839 40.4107 24.7574 40.006 25.2199C39.5435 25.6824 39.3701 26.3183 39.5435 26.8964L43.1857 39.6152C43.4169 40.3668 44.0529 40.8871 44.8623 40.8871H44.9201C45.7294 40.8871 46.3654 40.3089 46.5388 39.5574L47.5216 35.2214L53.0716 40.7714C53.4185 41.1183 53.881 41.2918 54.2857 41.2918C54.6904 41.2918 55.1529 41.1183 55.4998 40.7714C56.2513 40.0199 56.2513 38.9793 55.5576 38.2855Z" fill="#00114A"/>
</svg>
