<?xml version="1.0" standalone="no"?>
<!DOCTYPE svg PUBLIC "-//W3C//DTD SVG 1.1//EN" "http://www.w3.org/Graphics/SVG/1.1/DTD/svg11.dtd" >
<svg xmlns="http://www.w3.org/2000/svg">
<metadata>Generated by IcoMoon</metadata>
<defs>
<font id="icomoon" horiz-adv-x="1024">
<font-face units-per-em="1024" ascent="960" descent="-64" />
<missing-glyph horiz-adv-x="1024" />
<glyph unicode="&#x20;" horiz-adv-x="512" d="" />
<glyph unicode="&#xe900;" glyph-name="delivered" d="M506.052 199.010c0.004 45.756 13.346 90.522 38.391 128.815s60.71 68.454 102.63 86.797c41.92 18.342 88.277 24.068 133.402 16.478 45.12-7.59 87.053-28.164 120.666-59.213 1.114 80.435 0.444 160.866-2.001 241.301-1.335 55.261-32.538 110.74-84.813 138.153-26.863 14.199-54.694 27.864-82.842 40.812-111.223-35.974-241.485-83.426-372.865-142.175-12.631-5.584-23.453-14.584-31.244-25.987s-12.244-24.755-12.855-38.552c-2.052-63.405-2.686-128.843-1.852-193.547 0.067-1.899-0.476-3.767-1.549-5.333s-2.621-2.748-4.415-3.371c-1.795-0.619-3.741-0.649-5.553-0.085-1.812 0.567-3.396 1.698-4.517 3.23-13.904 17.801-27.486 35.396-40.745 52.796-0.979 1.357-2.434 2.3-4.075 2.637s-3.349 0.043-4.785-0.819c-10.311-6.14-20.439-12.198-30.384-18.172-5.573-3.337-12.431 1.118-12.464 7.974-0.334 64.457 1.268 129.079 4.722 191.715 1.452 26.412 18.020 51.29 42.531 63.404 126.007 62.236 260.442 113.076 375.151 150.701-26.697 10.445-53.244 20.022-79.155 29.099-34.94 11.997-72.879 11.997-107.819 0-86.464-29.833-180.885-68.777-266.915-114.327-52.258-27.414-83.426-82.892-84.811-138.153-3.404-110.455-3.404-220.911 0-331.371 1.335-55.258 32.553-110.737 84.811-138.15 86.029-45.551 180.451-84.497 266.966-114.313 34.935-11.998 72.879-11.998 107.819 0 7.552 2.603 15.177 5.291 22.874 8.060-41.425 43.588-64.457 101.466-64.303 161.596zM741.423 377.647c-35.332-0.004-69.871-10.483-99.247-30.118-29.376-19.631-52.275-47.535-65.792-80.179-13.517-32.649-17.054-68.565-10.155-103.219 6.895-34.654 23.91-66.487 48.9-91.469 24.986-24.981 56.819-41.993 91.473-48.883 34.658-6.891 70.575-3.349 103.219 10.176s60.54 36.425 80.171 65.805c19.627 29.38 30.101 63.923 30.097 99.255-0.004 23.458-4.625 46.69-13.606 68.365s-22.14 41.365-38.733 57.954c-16.589 16.589-36.284 29.743-57.958 38.72s-44.907 13.594-68.369 13.594zM843.319 228.578l-107.383-112.755c-2.923-3.076-6.438-5.525-10.33-7.206-3.895-1.681-8.090-2.556-12.331-2.573h-0.149c-4.215 0.004-8.388 0.849-12.271 2.492-3.887 1.643-7.398 4.045-10.338 7.070l-56.981 58.697c-5.82 5.999-9.015 14.059-8.892 22.413s3.563 16.32 9.562 22.14c5.995 5.815 14.059 9.015 22.413 8.892 8.354-0.128 16.316-3.567 22.135-9.562l34.189-35.187 84.779 89.033c5.828 5.709 13.645 8.939 21.807 8.998s16.026-3.046 21.943-8.67c5.914-5.623 9.417-13.321 9.766-21.474s-2.475-16.128-7.885-22.238l-0.034-0.068z" />
<glyph unicode="&#xe901;" glyph-name="google" d="M490.667 550.792v-173.499h241.105c-10.586-55.795-42.359-103.040-90.010-134.81l145.395-112.815c84.715 78.195 133.585 193.045 133.585 329.481 0 31.77-2.85 62.319-8.145 91.638l-421.931 0.005zM239.596 384.064l-32.792-25.105-116.075-90.411c73.716-146.21 224.803-247.215 399.929-247.215 120.956 0 222.366 39.91 296.491 108.331l-145.395 112.819c-39.91-26.88-90.82-43.174-151.095-43.174-116.479 0-215.444 78.605-250.879 184.495l-0.183 0.26zM90.721 670.125c-30.544-60.273-48.055-128.289-48.055-200.783 0-72.491 17.511-140.51 48.055-200.781 0-0.405 149.065 115.665 149.065 115.665-8.96 26.88-14.256 55.386-14.256 85.12s5.296 58.244 14.256 85.123l-149.065 115.656zM490.667 738.948c65.98 0 124.625-22.807 171.465-66.793l128.286 128.289c-77.786 72.493-178.786 116.889-299.75 116.889-175.125 0-326.221-100.596-399.938-247.215l149.060-115.665c35.431 105.892 134.399 184.495 250.878 184.495z" />
<glyph unicode="&#xe902;" glyph-name="like" d="M660.092 787.051c-54.319-7.469-108.727-33.182-148.092-74.897-39.364 41.716-93.773 67.428-148.090 74.897-68.941 9.48-144.181-9.845-190.733-71.568-60.236-79.867-60.236-192.986 0-272.85l200.278-265.549c70.811-93.888 206.278-93.888 277.088 0l200.282 265.549c60.233 79.863 60.233 192.983 0 272.85-46.554 61.723-121.792 81.048-190.733 71.568z" />
<glyph unicode="&#xe903;" glyph-name="shopping-cart" d="M167.222 831.514c-18.227 3.081-35.564-8.825-38.724-26.591s9.053-34.667 27.28-37.747c39.951-6.752 71.404-36.969 78.913-75.809l4.308-22.289c-17.51-25.486-30.726-54.075-38.655-84.827-18.855-73.13-18.855-149.67 0-222.796 1.609-6.242 3.436-12.395 5.473-18.449 1.472-4.378 3.054-8.704 4.742-12.979l8.015-20.42h1.058c15.8-31.906 37.759-60.254 64.384-83.635-5.606-6.942-10.252-14.626-13.777-22.861-7.391-17.263-9.556-36.228-6.24-54.652 3.316-18.428 11.977-35.541 24.957-49.318 12.979-13.781 29.735-23.646 48.286-28.437s38.121-4.301 56.396 1.408c18.275 5.709 34.49 16.401 46.731 30.81 12.045 14.187 19.746 31.39 22.217 49.634 49.796-7.369 100.412-7.689 150.281-0.956 1.69-15.497 7.155-30.426 16-43.52 10.586-15.667 25.566-28.045 43.157-35.657s37.060-10.138 56.081-7.279c19.025 2.863 36.804 10.987 51.226 23.411s24.879 28.629 30.131 46.677c5.248 18.052 5.069 37.193-0.521 55.147-3.49 11.221-8.998 21.679-16.218 30.916 29.094 24.239 52.983 54.246 69.85 88.311h1.058l8.017 20.429c1.557 3.942 3.025 7.932 4.399 11.964 2.176 6.379 4.117 12.868 5.815 19.456 18.854 73.126 18.854 149.666 0 222.796-25.749 99.865-107.264 176.922-210.458 198.944l-18.441 3.935c-73.702 15.729-150.020 15.729-223.723 0l-18.441-3.935c-43.8-9.347-83.695-28.61-117.077-55.322-19.713 53.606-67.648 93.696-126.499 103.642zM425.125 226.3c-52.829 11.273-98.176 41.54-128.109 83.307h488.17c-29.931-41.766-75.281-72.034-128.107-83.307l-18.445-3.938c-64.26-13.713-130.807-13.713-195.068 0l-18.442 3.938zM679.292 161.57c-0.009 0.926 0.017 1.847 0.090 2.761 20.006 4.873 39.147 11.831 57.165 20.629 3.844-3.776 6.699-8.418 8.29-13.534 1.865-5.986 1.924-12.365 0.171-18.381-1.749-6.020-5.235-11.418-10.039-15.561-4.809-4.143-10.735-6.852-17.075-7.804-6.345-0.956-12.83-0.111-18.697 2.423-5.862 2.539-10.859 6.665-14.387 11.887s-5.444 11.324-5.517 17.579zM339.084 188.275c18.021-9.391 37.236-16.917 57.373-22.315 0.028-1.519-0.053-3.042-0.245-4.565-0.782-6.187-3.365-12.028-7.444-16.832-4.079-4.8-9.485-8.367-15.576-10.27s-12.615-2.065-18.799-0.469c-6.184 1.596-11.769 4.885-16.096 9.481-4.326 4.591-7.213 10.295-8.319 16.439-1.105 6.14-0.384 12.463 2.080 18.219 1.653 3.857 4.044 7.356 7.026 10.313zM581.662 651.276c2.432 14.229 16.239 23.842 30.835 21.47l1.822-0.296c89.182-14.489 154.543-89.702 154.543-177.833 0-14.426-11.994-26.116-26.795-26.116-14.797 0-26.795 11.691-26.795 26.116 0 62.595-46.426 116.014-109.764 126.304l-1.822 0.296c-14.596 2.371-24.461 15.829-22.025 30.058z" />
<glyph unicode="&#xe904;" glyph-name="minus" d="M256 448c0 23.565 18.097 42.667 40.421 42.667h431.156c22.323 0 40.422-19.102 40.422-42.667s-18.099-42.667-40.422-42.667h-431.156c-22.324 0-40.421 19.102-40.421 42.667z" />
<glyph unicode="&#xe905;" glyph-name="plus" d="M512 704c22.323 0 40.422-18.097 40.422-40.421v-175.156h175.155c22.323 0 40.422-18.099 40.422-40.422s-18.099-40.422-40.422-40.422h-175.155v-175.155c0-22.323-18.099-40.422-40.422-40.422s-40.422 18.099-40.422 40.422v175.155h-175.156c-22.324 0-40.421 18.099-40.421 40.422s18.097 40.422 40.421 40.422h175.156v175.156c0 22.324 18.099 40.421 40.422 40.421z" />
<glyph unicode="&#xe906;" glyph-name="delete" d="M512 832c-26.701 0-53.205-4.707-78.029-13.915s-47.588-22.781-66.917-40.091c-19.335-17.316-34.883-38.064-45.568-61.166-6.459-13.964-11.046-28.588-13.666-43.55h-150.281c-16.314 0-29.539-13.324-29.539-29.76s13.225-29.761 29.539-29.761h49.231v-172.677c0-64.811 9.123-129.289 27.098-191.514 26.88-93.056 104.268-162.394 199.14-178.415l6.212-1.050c48.183-8.137 97.378-8.137 145.562 0l6.212 1.050c94.869 16.021 172.258 85.355 199.138 178.411 17.975 62.229 27.098 126.711 27.098 191.518v172.677h49.233c16.311 0 29.538 13.324 29.538 29.761s-13.227 29.76-29.538 29.76h-150.281c-2.62 14.962-7.211 29.586-13.666 43.55-10.688 23.102-26.236 43.85-45.568 61.166-19.332 17.31-42.095 30.883-66.918 40.091s-51.328 13.915-78.029 13.915zM454.383 762.23c18.18 6.745 37.769 10.249 57.617 10.249s39.437-3.505 57.617-10.249c18.18-6.744 34.492-16.555 48.081-28.722 13.577-12.162 24.141-26.408 31.266-41.82 2.782-6.009 5.022-12.163 6.729-18.41h-287.384c1.703 6.247 3.946 12.401 6.726 18.41 7.128 15.412 17.689 29.658 31.269 41.82 13.586 12.168 29.9 21.978 48.080 28.722zM433.229 474.876c16.316 0 29.542-13.325 29.542-29.764v-158.72c0-16.435-13.227-29.76-29.542-29.76-16.311 0-29.536 13.325-29.536 29.76v158.72c0 16.439 13.225 29.764 29.536 29.764zM590.771 474.876c16.311 0 29.538-13.325 29.538-29.764v-158.72c0-16.435-13.227-29.76-29.538-29.76-16.316 0-29.542 13.325-29.542 29.76v158.72c0 16.439 13.227 29.764 29.542 29.764z" />
<glyph unicode="&#xe907;" glyph-name="celender" d="M357.699 832c15.979 0 28.931-13.292 28.931-29.688v-9.637c1.886 0.492 3.779 0.968 5.679 1.425 78.726 18.95 160.655 18.95 239.379 0 1.903-0.457 3.793-0.932 5.679-1.425v9.637c0 16.396 12.954 29.688 28.932 29.688s28.932-13.292 28.932-29.688v-31.282c68.352-33.883 122.394-92.774 151.113-165.367 5.943-15.014 10.799-30.609 14.473-46.684 18.466-80.787 18.466-164.857 0-245.642-26.667-116.663-115.439-207.757-229.129-235.123-78.724-18.948-160.653-18.948-239.379 0-113.689 27.366-202.459 118.455-229.126 235.123-18.467 80.785-18.467 164.855 0 245.643 3.674 16.075 8.53 31.67 14.47 46.684 28.722 72.593 82.764 131.484 151.115 165.367v31.283c0 16.396 12.953 29.688 28.931 29.688zM328.769 703.187c-31.001-20.197-57.311-47.194-76.992-79.005h520.448c-19.682 31.812-45.99 58.809-76.992 79.005-0.085-16.321-13.005-29.525-28.932-29.525-15.979 0-28.932 13.292-28.932 29.688v27.586c-6.191 2.027-12.493 3.816-18.893 5.356-70.033 16.857-142.916 16.857-212.951 0-6.398-1.54-12.699-3.329-18.893-5.356v-27.586c0-16.396-12.953-29.688-28.931-29.688-15.925 0-28.845 13.204-28.931 29.525zM592.969 411.652c0-23.155-9.719-40.256-25.344-51.657 21.525-13.18 33.677-34.914 33.677-60.207 0-45.956-33.331-74.458-87.142-74.458-54.161 0-87.142 28.501-87.142 74.458 0 25.293 12.151 47.027 33.331 60.207-15.275 11.401-25.344 28.501-25.344 51.657 0 48.098 36.454 73.037 79.155 73.037s78.81-24.939 78.81-73.037zM545.404 409.161c0 18.526-13.193 29.214-31.245 29.214s-31.245-10.688-31.245-29.214c0-18.172 13.193-29.572 31.245-29.572s31.245 11.401 31.245 29.572zM474.581 306.202c0-22.447 16.666-34.56 39.578-34.56s39.578 12.113 39.578 34.56c0 22.089-16.666 34.202-39.578 34.202s-39.578-12.113-39.578-34.202z" />
<glyph unicode="&#xe908;" glyph-name="user" d="M512 832c-103.857 0-188.049-83.505-188.049-186.514s84.193-186.516 188.049-186.516c103.855 0 188.049 83.507 188.049 186.516s-84.194 186.514-188.049 186.514zM622.976 375.991c-73.519 11.639-148.433 11.639-221.95 0l-7.88-1.246c-103.589-16.397-179.812-105.020-179.812-209.062 0-56.158 45.899-101.683 102.519-101.683h392.295c56.619 0 102.519 45.525 102.519 101.683 0 104.043-76.224 192.666-179.81 209.062l-7.881 1.246z" />
<glyph unicode="&#xe90b;" glyph-name="order" d="M513.51 529.365c-58.317 20.881-299.032 106.559-395.27 137.519l-0.24-464.149 397.913-162.718-2.402 489.348zM552.631 531.529l2.159-485.99 351.351 216.474-9.6 460.551-152.636-84.719 2.402-111.359c0.478-25.677-38.639-26.398-39.121-0.717l-1.92 90.717-152.636-84.957zM151.839 696.883c111.358-36.719 332.632-115.677 379.433-132.477l146.876 81.598-350.153 134.397-176.157-83.518zM376.954 803.441l345.832-132.717 141.837 78.718-376.55 106.558-111.118-52.559z" />
<glyph unicode="&#xe90c;" glyph-name="logout" d="M545.882 787.86c0 18.487-15.168 33.473-33.882 33.473s-33.882-14.986-33.882-33.473v-178.521c0-18.486 15.168-33.472 33.882-33.472s33.882 14.986 33.882 33.472v178.521zM783.531 722.269c-13.235 13.072-34.688 13.072-47.919 0s-13.231-34.266 0-47.337c44.228-43.692 74.347-99.358 86.545-159.958 12.203-60.604 5.943-123.418-17.993-180.506-23.936-57.084-64.469-105.877-116.471-140.207-52.006-34.325-113.148-52.651-175.693-52.651s-123.686 18.325-175.691 52.651c-52.005 34.33-92.537 83.123-116.472 140.207s-30.198 119.902-17.996 180.501c12.202 60.604 42.32 116.27 86.547 159.962 13.232 13.072 13.232 34.266 0 47.337s-34.685 13.072-47.917 0c-53.703-53.054-90.275-120.649-105.092-194.239-14.816-73.587-7.212-149.862 21.852-219.179 29.064-69.321 78.283-128.567 141.431-170.253 63.148-41.681 137.392-63.932 213.338-63.932s150.191 22.251 213.338 63.932c63.151 41.685 112.367 100.932 141.431 170.253 29.065 69.316 36.668 145.591 21.854 219.183-14.818 73.586-51.392 141.181-105.092 194.235z" />
<glyph unicode="&#xe90d;" glyph-name="search" d="M141.471 372.006v0zM141.471 604.843v0zM801.677 604.843v0zM801.677 372.011v0zM587.989 158.323v0zM355.157 158.323v0zM355.157 818.529v0zM587.989 818.529v0zM873.374 41.374c12.497-12.497 32.755-12.497 45.252 0s12.497 32.755 0 45.252l-45.252-45.252zM172.625 379.315c-16.834 71.765-16.834 146.453 0 218.22l-62.309 14.616c-19.089-81.377-19.089-166.071 0-247.449l62.309 14.613zM770.522 597.535c16.836-71.766 16.836-146.454 0-218.22l62.31-14.613c19.089 81.378 19.089 166.071 0 247.448l-62.31-14.615zM580.685 189.478c-71.765-16.836-146.453-16.836-218.22 0l-14.615-62.31c81.377-19.089 166.070-19.089 247.448 0l-14.613 62.31zM362.465 787.375c71.766 16.834 146.454 16.834 218.22 0l14.613 62.309c-81.378 19.089-166.071 19.089-247.449 0l14.616-62.309zM362.465 189.478c-94.196 22.093-167.744 95.642-189.84 189.837l-62.309-14.613c27.646-117.862 119.673-209.886 237.533-237.534l14.615 62.31zM595.298 127.168c117.862 27.648 209.886 119.671 237.534 237.534l-62.31 14.613c-22.093-94.195-95.642-167.744-189.837-189.837l14.613-62.31zM580.685 787.375c94.195-22.095 167.744-95.644 189.837-189.84l62.31 14.615c-27.648 117.861-119.671 209.887-237.534 237.533l-14.613-62.309zM347.849 849.683c-117.86-27.646-209.886-119.672-237.533-237.533l62.309-14.616c22.095 94.196 95.644 167.744 189.84 189.84l-14.616 62.309zM717.005 197.739l156.369-156.365 45.252 45.252-156.365 156.369-45.257-45.257z" />
<glyph unicode="&#xe90e;" glyph-name="down-arrow" d="M276.039 577.294c12.497 12.497 32.758 12.497 45.255 0l190.706-190.704 190.707 190.704c12.497 12.497 32.755 12.497 45.252 0s12.497-32.758 0-45.254l-213.333-213.333c-5.999-6.003-14.14-9.374-22.626-9.374s-16.627 3.371-22.626 9.374l-213.335 213.333c-12.497 12.495-12.497 32.757 0 45.254z" />
<glyph unicode="&#xe911;" glyph-name="iphone" d="M902.084 185.826c-14.195-32.794-30.997-62.98-50.466-90.735-26.534-37.833-48.265-64.026-65.007-78.566-25.958-23.872-53.769-36.096-83.55-36.791-21.38 0-47.164 6.084-77.18 18.423-30.11 12.284-57.783 18.368-83.085 18.368-26.539 0-54.997-6.084-85.44-18.368-30.49-12.339-55.049-18.773-73.827-19.409-28.559-1.216-57.025 11.354-85.439 37.777-18.135 15.817-40.819 42.935-67.993 81.348-29.156 41.020-53.126 88.593-71.904 142.822-20.111 58.577-30.193 115.302-30.193 170.219 0 62.908 13.593 117.163 40.819 162.628 21.397 36.52 49.864 65.328 85.491 86.476s74.123 31.925 115.58 32.615c22.684 0 52.431-7.017 89.395-20.806 36.864-13.836 60.531-20.853 70.908-20.853 7.761 0 34.052 8.204 78.626 24.561 42.15 15.169 77.726 21.449 106.871 18.976 78.972-6.374 138.304-37.505 177.762-93.591-70.63-42.795-105.57-102.735-104.875-179.629 0.64-59.891 22.366-109.734 65.071-149.308 19.349-18.364 40.96-32.559 65.007-42.641-5.214-15.125-10.718-29.611-16.572-43.516zM720.964 898.554c0-46.944-17.152-90.775-51.337-131.345-41.254-48.23-91.153-76.099-145.263-71.701-0.687 5.632-1.088 11.559-1.088 17.788 0 45.066 19.618 93.296 54.455 132.73 17.395 19.966 39.518 36.568 66.342 49.812 26.769 13.046 52.092 20.26 75.904 21.496 0.695-6.276 0.986-12.552 0.986-18.778v-0.001z" />
<glyph unicode="&#xe912;" glyph-name="order-confrim" d="M162.036 683.029c-6.665 0.015-13.092-2.467-18.016-6.959s-7.984-10.665-8.579-17.303l-49.864-542.522c-1.394-15.181 3.17-28.774 13.444-40.034 10.272-11.264 23.394-17.054 38.636-17.054h345.35c-13.564 32.64-21.065 68.437-21.065 105.988 0 152.683 123.772 276.454 276.45 276.454 9.664 0 19.315-0.503 28.928-1.502l-20.1 218.669c-0.597 6.638-3.657 12.812-8.58 17.303s-11.349 6.974-18.014 6.959h-124.676v-67.7c0-11.8-9.566-21.366-21.363-21.366-11.802 0-21.367 9.566-21.367 21.366v67.7h-223.776v-67.7c0-11.8-9.566-21.366-21.366-21.366s-21.366 9.566-21.366 21.366v67.7h-124.676zM286.712 686.547v76.168c0 42.542 17.388 81.202 45.402 109.216s66.674 45.402 109.217 45.402c42.543 0 81.203-17.388 109.214-45.402 28.015-28.014 45.402-66.676 45.402-109.216v-76.168h-42.726v76.168c0 30.746-12.595 58.716-32.887 79.004-20.288 20.29-48.256 32.884-79.002 32.884s-58.715-12.594-79.005-32.884c-20.29-20.288-32.884-48.256-32.884-79.004v-76.168h-42.73zM738.394 393.6c-126.17 0-228.454-102.281-228.454-228.454 0-126.17 102.285-228.45 228.454-228.45s228.45 102.281 228.45 228.45c0 126.174-102.281 228.454-228.45 228.454zM626.726 151.625l68.348-62.771c9.574-8.811 24.401-8.346 33.408 0.943l121.954 116.77c9.527 9.165 9.822 24.316 0.657 33.843s-24.316 9.818-33.843 0.657l-106.287-101.769-51.802 47.573c-9.732 8.956-24.887 8.324-33.843-1.408-8.96-9.732-8.329-24.883 1.408-33.839z" />
<glyph unicode="&#xe913;" glyph-name="order-shipped" d="M125.166 363.665h-54.999c-15.2 0-27.5-12.297-27.5-27.499v-329.997c0-15.202 12.3-27.499 27.5-27.499h54.999c45.492 0 82.499 37.005 82.499 82.496v220.002c0 45.491-37.006 82.496-82.499 82.496zM973.073 310.31c-3.298 5.5-7.697 9.903-12.646 13.751-20.25 17.715-54.366 16.038-74.249-5.5l-124.851-144.102c-16.981-19.392-37.005-30.797-64.346-30.797h-217.067c-15.403 0-27.499 12.1-27.499 27.499 0 15.403 12.096 27.499 27.499 27.499h171.418c30.246 0 54.997 24.751 54.997 55.002v0.55c-0.55 30.246-24.751 54.447-54.997 54.447h-103.219c-16.491 0-34.163 6.059-48.397 18.155-67.098 58.846-165 62.699-237.050 12.646v-338.244c54.449-14.852 110.549-22.554 167.196-22.554h248.969c60.497 0 117.7 28.604 153.997 77.001l132.002 176c19.255 25.28 20.706 59.947 8.243 78.647zM484.501 697.333v-144.792l39.744 26.506c9.237 6.178 21.269 6.178 30.507 0l39.748-26.506v144.792h-109.999zM811.712 905.087c-5.099 7.654-13.696 12.247-22.878 12.247h-139.332v-164.999h264.047l-101.837 152.752zM594.5 917.333h-109.999v-164.999h109.999v164.999zM649.502 697.333v-196.166c0-10.15-5.589-19.469-14.532-24.252-8.828-4.732-19.708-4.305-28.224 1.37l-67.247 44.821-67.247-44.821c-8.431-5.585-19.307-6.148-28.224-1.37-8.943 4.783-14.528 14.101-14.528 24.252v196.166h-276.833v-281.444c26.869-5.478 50.915-18.807 69.619-37.491l8.987 6.246c42.001 29.163 91.173 44.578 142.225 44.578 59.889 0 117.574-21.67 162.481-61.043 3.759-3.17 8.832-4.51 12.139-4.51h103.219c59.537 0 107.23-46.003 109.888-105.327l83.388 96.252c21.696 23.565 51.046 36.352 81.719 36.514v306.225h-276.83zM843.831 418.667h-109.999c-15.198 0-27.499 12.301-27.499 27.503 0 15.198 12.301 27.499 27.499 27.499h109.999c15.202 0 27.499-12.301 27.499-27.499 0-15.202-12.297-27.503-27.499-27.503zM290.048 917.333c-9.185 0-17.777-4.593-22.88-12.247l-101.836-152.752h264.047v164.999h-139.332z" />
<glyph unicode="&#xe914;" glyph-name="order-ship" d="M711.834 741.137c81.382-18.883 112.512-66.471 151.543-131.971h-151.543v131.971zM236.226 603.667c15.936 0 27.5-7.691 27.5-25.667 0-15.162-12.267-27.458-27.421-27.5h-166.138c-15.189 0-27.5-12.318-27.5-27.5 0-15.189 12.311-27.499 27.5-27.499h247.5c15.332 0 27.608-12.301 27.608-27.499 0-15.189-12.311-27.503-27.5-27.503h-247.608c-15.189 0-27.5-12.309-27.5-27.499s12.311-27.499 27.5-27.499h60.5v-82.5c0-15.189 12.311-27.503 27.5-27.503h55.279c9.854-48.542 52.745-84.331 103.305-84.331s93.45 35.789 103.305 84.331h279.222c9.856-48.542 52.749-84.331 103.305-84.331 50.56 0 93.453 35.789 103.305 84.331h47.949c15.189 0 27.499 12.314 27.499 27.503v165.001c0 80.687-85.107 86.044-85.184 86.164h-211.814c-15.189 0-27.503 12.311-27.503 27.5v165h-498.665c-15.189 0-27.5-12.311-27.5-27.5v-60.5h-33c-15.189 0-27.5-12.311-27.5-27.5s12.311-27.5 27.5-27.5h138.56zM838.234 332.233c19.686-19.686 19.686-51.618 0-71.305-31.667-31.671-86.067-9.139-86.067 35.657 0 44.787 54.4 67.315 86.067 35.648zM352.399 332.233c19.688-19.686 19.688-51.618 0-71.305-31.667-31.671-86.066-9.139-86.066 35.657 0 44.787 54.399 67.315 86.066 35.648z" />
<glyph unicode="&#xe917;" glyph-name="img" d="M528.358 570.534c0 58.65 47.543 106.195 106.197 106.195 58.65 0 106.193-47.545 106.193-106.195s-47.543-106.196-106.193-106.196c-58.654 0-106.197 47.548-106.197 106.196zM634.556 627.715c-31.582 0-57.182-25.601-57.182-57.182s25.6-57.181 57.182-57.181c31.578 0 57.182 25.6 57.182 57.181s-25.604 57.182-57.182 57.182zM864.427 269.21c7.023 16.678 12.71 34.074 16.93 52.058 19.554 83.358 19.554 170.108 0 253.463-28.237 120.377-122.227 214.368-242.607 242.605-83.354 19.553-170.103 19.553-253.46 0-120.377-28.236-214.368-122.228-242.605-242.604-19.553-83.356-19.553-170.106 0-253.464 2.073-8.836 4.501-17.532 7.267-26.069l25.762 25.754c93.173 93.158 244.236 93.158 337.408 0l72.137-72.119 18.91 18.906c72.457 72.439 188.757 71.59 260.258 1.472zM840.597 222.716l-1.045 1.259c-51.217 61.449-144.158 65.664-200.73 9.101l-18.901-18.897 102.967-102.95c47.612 26.539 87.765 64.619 116.787 110.554 0.316 0.307 0.623 0.619 0.922 0.934zM675.281 89.519l-196.813 196.774c-74.033 74.018-194.066 74.018-268.1 0l-40.024-40.017c43.084-83.456 120.975-145.57 214.946-167.612 83.356-19.554 170.106-19.554 253.46 0 12.476 2.927 24.67 6.558 36.531 10.854z" />
<glyph unicode="&#xe919;" glyph-name="star" d="M512 789.333l105.472-210.641 235.861-33.985-170.667-163.868 40.277-231.505-210.944 109.359-210.944-109.359 40.277 231.505-170.667 163.868 235.861 33.985 105.472 210.641z" />
<glyph unicode="&#xe91b;" glyph-name="playstore" d="M139.404 821.827c-9.243-9.434-14.592-24.121-14.592-43.142v-678.453c0-19.021 5.349-33.707 14.592-43.14l2.281-2.069 389.928 380.028v8.973l-389.928 380.028-2.281-2.224zM708.646 308.314l-129.835 126.737v8.977l129.993 126.738 2.91-1.649 153.941-85.401c43.934-24.235 43.934-64.119 0-88.508l-157.009-86.895zM688.111 286.357l-132.898 129.579-392.213-382.443c14.592-14.959 38.387-16.759 65.447-1.805l459.664 254.669zM688.111 592.703l-459.664 254.669c-27.060 14.802-50.855 13-65.447-1.955l392.213-382.291 132.898 129.577z" />
<glyph unicode="&#xe91d;" glyph-name="facebook" d="M399.343 229.312c-3.935 51.157-3.935 102.31-7.87 157.402 0 27.546-11.805 47.223-43.285 47.223-19.675 0-39.351-3.934-43.286 23.607-3.935 35.418-11.805 74.769 0 110.183 0 3.935 15.74 11.805 23.61 11.805 59.026-11.805 70.831 19.676 70.831 66.897 0 125.922 106.249 192.818 243.972 184.948 39.351-3.935 39.351-35.415 39.351-62.961-3.934-27.545 11.806-66.896-39.351-66.896-43.285 3.935-74.765-11.805-74.765-62.961 0-35.415 3.934-62.96 47.219-66.895 62.963-3.935 51.157-47.221 51.157-90.507 3.934-47.219-19.678-62.959-62.963-62.959s-51.153-23.612-51.153-62.963c0-86.571 0-169.207-3.934-255.778-3.938-55.091-15.744-59.025-90.509-55.091-51.155 0-59.025 23.612-55.090 66.897-7.87 35.413-7.87 74.765-3.935 118.050z" />
<glyph unicode="&#xe91f;" glyph-name="instagram" d="M490.569 79.428c-67.43 0-134.859-4.036-198.321 0-91.227 8.073-126.925 40.371-142.791 137.263-19.832 113.037-27.764 222.037-15.865 335.076 3.966 40.371 7.933 84.779 15.865 125.15 11.899 84.779 47.597 121.113 130.892 141.298 35.698 8.074 67.429 12.112 103.127 8.075 75.363-4.037 150.725-4.037 226.087 4.038 35.695 4.037 67.426 0 103.125-4.038 67.426-8.074 115.025-44.409 122.957-113.039 23.799-169.558 43.631-339.116 11.9-508.673-15.863-80.742-51.563-113.037-130.893-129.186-71.394-4.036-146.756 0-226.082 4.036zM506.432 620.399c-91.226 4.037-170.554-64.594-178.487-149.371-7.933-104.964 55.53-173.598 162.624-181.67 83.294-4.036 162.624 68.629 170.556 161.485 7.932 84.777-63.462 165.52-154.692 169.557zM752.35 684.992c-3.968 24.222-15.863 40.371-43.631 40.371-31.731 0-47.595-20.186-47.595-48.445s15.863-48.445 47.595-48.445c31.731 4.037 43.631 24.222 43.631 56.519z" />
<glyph unicode="&#xe922;" glyph-name="linkdin" d="M391.114 317.372c0 58.475 0 112.768 0 171.243 4.177 75.178 45.942 112.767 112.771 83.531 33.412-12.53 54.293-16.707 79.351-4.177 62.652 33.413 116.945 8.354 175.42-12.529 37.589-12.53 58.47-41.767 71.002-79.356 33.412-108.591 33.412-217.182 29.235-325.773 0-29.239-12.531-50.121-45.943-54.298-8.35 0-12.527 0-20.881-4.177-116.945-20.881-129.476-12.527-116.945 104.418 4.177 50.116 12.527 100.237 0 150.357-8.354 25.058-16.708 54.293-50.121 58.47-29.235 4.177-50.116-16.708-66.825-37.589s-20.881-45.943-20.881-75.179c0-41.766 0-79.356 0-121.122 0-83.533-4.177-87.71-79.356-83.533-71.003 0-71.004 0-71.004 71.006 4.177 50.116 4.177 104.414 4.177 158.707zM161.406 325.734c0 58.475 0 112.768 0 171.243 0 50.118 29.237 58.471 71.003 62.648 45.943 0 54.295-25.059 54.295-62.648 8.353-108.591 8.353-217.186 4.177-325.777 0-37.589 0-83.533-58.472-83.533-50.119-4.173-75.18 16.708-75.18 66.829 0 58.47 0 121.122 0 179.593 0-8.354 4.177-8.354 4.177-8.354zM199.001 789.333c62.649 0 96.063-25.059 96.063-62.649 0-45.943-54.297-100.238-96.063-100.238s-71.001 33.412-71.001 79.355c4.177 54.296 29.235 83.532 71.001 83.532z" />
<glyph unicode="&#xe923;" glyph-name="twitter" d="M251.017 342.042c-23.657 23.654-47.314 47.313-66.24 70.967-23.657 33.122-70.971 66.24-4.731 108.826 18.926 14.192 4.731 42.581 0 61.507-14.194 42.583-18.926 85.164-18.926 151.404 61.508-89.897 123.016-141.942 212.913-165.599 28.388-9.463 56.777-9.462 89.895-14.193 56.777-4.731 80.435 23.657 85.167 80.434 14.195 146.673 94.626 193.987 222.374 118.285 47.313-28.388 66.24 14.194 104.090 18.925 14.195-37.851 37.854-75.702 0-118.285-18.923-18.926-14.191-47.314-14.191-75.703-4.732-222.377-141.943-406.898-354.854-473.138-66.24-23.659-137.212-37.854-212.914-37.854-61.508 4.732-118.285 14.195-165.599 75.703 61.508 9.463 132.479-23.659 175.062 47.313-28.388 42.581-104.091 56.777-108.822 127.748 9.463 23.659 42.583 0 56.777 23.659z" />
<glyph unicode="&#xe925;" glyph-name="left" d="M641.293 683.961c12.497-12.497 12.497-32.758 0-45.255l-190.703-190.706 190.703-190.707c12.497-12.497 12.497-32.755 0-45.252s-32.755-12.497-45.252 0l-213.335 213.333c-6.001 5.999-9.373 14.14-9.373 22.626s3.372 16.627 9.373 22.626l213.335 213.335c12.497 12.497 32.755 12.497 45.252 0z" />
<glyph unicode="&#xe927;" glyph-name="right" d="M382.706 212.041c-12.497 12.497-12.497 32.755 0 45.252l190.704 190.707-190.704 190.706c-12.497 12.497-12.497 32.758 0 45.255s32.758 12.497 45.254 0l213.333-213.335c6.003-5.999 9.374-14.14 9.374-22.626s-3.371-16.627-9.374-22.626l-213.333-213.333c-12.495-12.497-32.757-12.497-45.254 0z" />
<glyph unicode="&#xe929;" glyph-name="left-arrow" d="M448.393 647.997c12.954 12.812 12.954 33.583 0 46.394-12.949 12.812-33.95 12.812-46.903 0l-212.142-209.835c-11.084-5.926-18.682-18.065-18.682-32.077 0-14.025 7.616-26.176 18.723-32.094l212.101-209.796c12.952-12.809 33.953-12.809 46.903 0 12.954 12.813 12.954 33.583 0 46.396l-161.319 159.565h532.221c18.799 0 34.039 16.090 34.039 35.93 0 19.844-15.241 35.934-34.039 35.934h-532.24l161.338 159.584z" />
<glyph unicode="&#xe92c;" glyph-name="right-arrow" d="M575.607 256.981c-12.954-12.813-12.954-33.583 0-46.396 12.949-12.809 33.95-12.809 46.903 0l212.139 209.839c11.085 5.922 18.684 18.061 18.684 32.073 0 14.029-7.616 26.18-18.722 32.094l-212.1 209.797c-12.954 12.812-33.954 12.812-46.903 0-12.954-12.811-12.954-33.583 0-46.394l161.318-159.568h-532.221c-18.799 0-34.039-16.085-34.039-35.93s15.24-35.93 34.039-35.93h532.242l-161.34-159.586z" />
<glyph unicode="&#xe92d;" glyph-name="edit" d="M637.875 768c67.319 0 121.894-54.378 121.894-121.457 0-32.212-12.843-63.106-35.699-85.883l-143.761-143.243c-66.022-65.792-148.749-112.461-239.336-135.027l-27.785-6.921c-28.818-7.181-54.921 18.829-47.716 47.543l6.946 27.686c22.646 90.261 69.486 172.693 135.511 238.484l143.756 143.244c22.861 22.778 53.867 35.574 86.191 35.574zM596.565 605.376c22.003-21.927 47.514-31.267 66.436-27.985l22.14 22.058c12.531 12.49 19.575 29.43 19.575 47.093 0 36.783-29.926 66.601-66.842 66.601-17.724 0-34.726-7.017-47.262-19.507l-22.135-22.058c-3.294-18.855 6.080-44.275 28.087-66.202zM227.583 155.43c0 15.147 12.324 27.426 27.527 27.426h513.837c15.202 0 27.524-12.279 27.524-27.426 0-15.151-12.322-27.43-27.524-27.43h-513.837c-15.203 0-27.527 12.279-27.527 27.43z" />
</font>
</defs>
</svg>
